<?xml version="1.0" encoding="UTF-8"?>
<svg width="182" height="196" version="1.1" viewBox="0 0 182 196" xmlns="http://www.w3.org/2000/svg"><g transform="translate(-5.02 21.9)"><path d="m72 128c-0.593-4.7-1.31-9.38-1.87-14.1-0.215-1.79-0.057-4.52-1.2-6.01-2.11-2.76-6.73-4.53-9.41-6.88-7.1-6.23-12.7-15.8-12.4-25.5 0.177-7.17 2.62-14.2 7.15-19.8 1.93-2.39 7.02-5.43 7.75-8.32 0.427-1.69-0.226-3.75-0.448-5.44-0.533-4.06-1.08-8.11-1.65-12.2-0.349-2.51-0.68-5.86 2.52-6.77 2.12-0.599 4.65 2.35 6.08 3.54 4.3 3.57 9.06 9.06 14.1 11.5 2.15 1.04 5.7-0.396 8-0.555 5.83-0.402 11.2 0.236 17 0.838 2.27 0.236 3.83-1.58 5.44-2.92l10.9-9.02c1.86-1.55 4.48-4.64 7.01-2.75 2.3 1.72 1.61 4.65 1.27 7.1l-1.56 11.5c-0.21 1.53-0.893 3.58-0.497 5.11 0.484 1.86 3.03 3.22 4.34 4.5 2.87 2.8 5.44 5.99 7.24 9.6 6.61 13.2 2.63 27.8-7.38 38-3.21 3.25-7.9 5.06-10.9 8.26-2.3 2.43-2.06 10-2.56 13.3-0.189 1.22-0.761 3.43 0.859 3.95 1.97 0.632 2.3-2.03 2.48-3.31 0.436-3.09 0.294-10.2 2.94-12.2 4.4-3.22 8.75-5.99 12.3-10.2 9.22-10.9 11.5-26 5.48-39-1.63-3.52-4.01-6.78-6.65-9.6-1.32-1.41-3.99-2.87-4.52-4.8-0.382-1.4 0.238-3.39 0.434-4.8 0.842-6.04 5-17.9-2.6-21-3-1.25-5.71 0.353-8 2.17-3.69 2.92-7.27 5.97-10.9 8.98-1.45 1.21-3.43 3.61-5.44 3.68-4.98 0.155-9.97-1.14-15-0.793-2.29 0.157-6.2 1.53-8.32 0.55-5.18-2.4-9.95-8.2-14.4-11.8-2.46-1.97-5.3-4.15-8.64-2.88-7.73 2.94-3.65 15.1-2.79 21.1 0.206 1.44 0.877 3.59 0.495 5.02-0.485 1.8-3.76 3.89-5.06 5.22-2.85 2.92-5.16 6.5-6.77 10.2-5.87 13.7-2.26 29 7.75 39.7 2.25 2.4 4.94 4.54 7.65 6.39 1.25 0.852 3.27 1.58 4.02 2.96 1.91 3.52 1.63 10.3 2.07 14.3 0.178 1.59 0.0515 4.4 1.14 5.66 1.53 1.78 7.54 0.742 9.73 0.742h28.8c3.19 0 11-1.41 12 2.88 1.37 5.59-9.12 4.16-12 4.16-10.7 0-22.4-1.42-33 0.096-4.52 0.652-7.83 4.57-6.33 9.18 1.44 4.44 6.24 4.8 10.2 4.8h29.8c2.86 0 13.8-1.38 11.6 4.48-1.5 3.93-8.65 2.56-11.9 2.56h-22.4c-3.7 0-7.88-0.539-11.5 0.15-4.02 0.759-5.89 4.34-5.38 8.17 0.572 4.28 4.97 5.44 8.58 5.44h28.5c3.09 0 6.19 0.0419 9.28-0.00128 1.03-0.0144 2.52-0.0208 2.76-1.31 0.563-2.99-8.3-1.89-10.1-1.89h-28.2c-2.56 0-8.23-0.0778-7.54-4.16 0.781-4.65 9.07-3.2 12.3-3.2 10.9 0 22.1 0.859 33-0.0298 3.53-0.29 6.31-3.14 6.38-6.69 0.0755-3.91-3.3-6.74-7.02-7.01-10.8-0.792-21.9-0.0288-32.6-0.0288-3.08 0-13 1.54-12.4-3.84 0.533-4.74 9.22-3.2 12.4-3.2 10.6 0 22.2 1.41 32.6-0.096 4.42-0.637 6.8-3.85 6.37-8.22-0.608-6.09-7.77-5.44-12.1-5.44h-39m5.44-74.4c-2.66 0.611-5.04 2.61-6.37 4.95-0.569 1.01-1.09 2.79 0.332 3.4 1.63 0.702 2.5-1.48 3.28-2.44 1.31-1.62 3.45-3.06 5.64-2.77 2.17 0.293 4.05 4.15 6.05 3.51 2.33-0.746 0.305-3.58-0.661-4.53-2.14-2.11-5.37-2.79-8.26-2.13m33-0.0032c-2.08 0.451-4.04 1.86-5.15 3.67-0.61 0.994-0.806 2.74 0.704 3.03 2.66 0.5 4.02-4.42 7.65-3.41 2.35 0.651 4.89 5.63 7.01 5.15 2.64-0.597 0.22-4.08-0.665-5.08-2.41-2.72-5.92-4.14-9.54-3.36m-14.7 29h0.64c2.16 4.16 7.96 6.22 12.2 3.85 1.53-0.861 6.09-4.49 4.29-6.59-0.983-1.14-2.24-0.357-3.01 0.535-1.69 1.96-3.82 4.42-6.72 3.45-2.02-0.677-6.03-4.11-4.78-6.63 0.805-1.62 4.09-3.19 2.34-5.41-1.41-1.79-9.14-1.91-9.59 0.885-0.339 2.11 1.9 2.87 2.84 4.27 1.28 1.9-1.61 4.98-2.98 5.98-4.41 3.22-6.15-1.2-9.33-3.3-1.02-0.673-2.4-0.274-2.53 1.05-0.172 1.73 1.77 3.4 2.91 4.43 4.16 3.77 11.3 2.74 13.8-2.53z" fill="#080808"/></g></svg>
